PathFileType	4	(X/Y/Z)	D:\Share\Shared_Data\Ergonomics\Sit To Stand Pertubation\S3\Perturbed.trc
DataRate	CameraRate	NumFrames	NumMarkers	Units	OrigDataRate	OrigDataStartFrame	OrigNumFrames	
100	100	8	18	m	100	3945	231
Frame#	Time	R_ASIS			R_Pelvis			V_Sacral			L_Pelvis			L_ASIS			Clavical			R_Acromium			L_Acromium			Sternum			Torso			R_Thigh_Med			R_Thigh_Lat			R_Thigh			R_Shank_Med			R_Shank_Lat			R_Shank			R_Heel			R_Toe			
		X1	Y1	Z1	X2	Y2	Z2	X3	Y3	Z3	X4	Y4	Z4	X5	Y5	Z5	X6	Y6	Z6	X7	Y7	Z7	X8	Y8	Z8	X9	Y9	Z9	X10	Y10	Z10	X11	Y11	Z11	X12	Y12	Z12	X13	Y13	Z13	X14	Y14	Z14	X15	Y15	Z15	X16	Y16	Z16	X17	Y17	Z17	X18	Y18	Z18	

3945	39.44	0.24516518	0.79314215	0.14553065	0.14805646	0.83626221	0.20146626	0.056257675	0.89144281	0.0071431699	0.1650695	0.85104382	-0.19636136	0.25194987	0.79170044	-0.13368169	0.42161917	1.1796733	-0.0017208264	0.40509583	1.2556995	0.15991832	0.40638452	1.2524114	-0.15025043	0.41609656	1.0935637	0.0032347395	0.41959109	1.160902	-0.063460335	0.42424448	0.45025818	0.08389856	0.40079309	0.43301648	0.1898127	0.34616849	0.64285632	0.12237349	0.2913472	0.10615026	0.10003442	0.26675705	0.09521003	0.18016782	0.31523749	0.26987381	0.20059351	0.20984804	0.050257133	0.13366382	0.42926294	0.054483036	0.13667978
3946	39.45	0.24975165	0.80153827	0.14529834	0.15207268	0.84306543	0.20090042	0.060118393	0.89809296	0.0067400198	0.16911511	0.85806683	-0.19647079	0.25671945	0.80001459	-0.13390686	0.42124878	1.1910013	-0.0013733222	0.40325391	1.2666747	0.16043681	0.40504242	1.2631912	-0.15024953	0.41683362	1.1049672	0.0036273859	0.41957983	1.1722896	-0.063269852	0.42324854	0.45090881	0.083242065	0.39937543	0.43380902	0.18895316	0.34939346	0.64498773	0.12274861	0.29125311	0.10618655	0.10002764	0.26661453	0.09546759	0.18016542	0.31434665	0.27040152	0.20017612	0.20985297	0.050322601	0.13372693	0.42923654	0.054514774	0.13666315
3947	39.46	0.25435732	0.80987488	0.14504834	0.1561347	0.84976807	0.20032118	0.064000252	0.90455078	0.0063251028	0.17319238	0.86499396	-0.19658643	0.26159052	0.8082876	-0.1341765	0.4206973	1.2022714	-0.0010292177	0.40119711	1.2775309	0.16096155	0.40347012	1.2739246	-0.15023466	0.41743036	1.116344	0.0039800303	0.41940091	1.1836501	-0.063099869	0.42219125	0.45158411	0.082546326	0.39784991	0.43462625	0.18804135	0.35256439	0.64703503	0.12315019	0.29115765	0.10621586	0.10000912	0.26647952	0.095708862	0.18014291	0.31339612	0.27094836	0.19971735	0.20985941	0.050380112	0.13377377	0.4292139	0.054543926	0.13664149
3948	39.47	0.25896445	0.81813507	0.14478558	0.16023267	0.85636005	0.19973422	0.067899734	0.91080243	0.005899858	0.17731848	0.87180084	-0.19670903	0.26654816	0.81649292	-0.1344796	0.4199765	1.2134406	-0.00068891144	0.39894254	1.2882219	0.16148981	0.40167621	1.2845703	-0.15021101	0.41788519	1.1276553	0.0042930121	0.41906458	1.1949429	-0.062950386	0.42105499	0.45227917	0.081811897	0.39621176	0.43547025	0.18707123	0.35567108	0.64899396	0.12356902	0.29105981	0.10623849	0.099979744	0.26635263	0.095925957	0.18009732	0.31238092	0.27151434	0.19921707	0.209868	0.050433052	0.13380823	0.42919354	0.05457127	0.13661523
3949	39.48	0.26356326	0.82630316	0.14451639	0.16435823	0.86283252	0.19914629	0.071813011	0.91683807	0.005464406	0.18150652	0.87846576	-0.19683731	0.27157388	0.8246048	-0.13480299	0.41909958	1.2244644	-0.00035303169	0.39650858	1.2987041	0.16201855	0.39967755	1.2950824	-0.15018314	0.41819769	1.1388607	0.0045698843	0.41858215	1.2061249	-0.062821484	0.41981744	0.4529881	0.081038666	0.39445563	0.43634476	0.18604037	0.35870316	0.65086096	0.12398909	0.29095877	0.10625549	0.099942062	0.26622977	0.096121147	0.18002908	0.31129358	0.27210043	0.19867628	0.20987872	0.050483788	0.1338343	0.42917368	0.054597961	0.13658563
3950	39.49	0.26815723	0.83436633	0.14424611	0.16850435	0.86917755	0.19856339	0.075735458	0.92264935	0.0050184159	0.18576286	0.88496979	-0.19696722	0.27664795	0.83259753	-0.1351339	0.41808066	1.235298	-2.2194302e-05	0.39391455	1.308936	0.1625459	0.39749704	1.3054128	-0.1501555	0.41836902	1.1499175	0.0048155313	0.41796521	1.2171514	-0.062713223	0.41845529	0.4537049	0.080223129	0.39257568	0.43725421	0.18494948	0.361651	0.65263348	0.12438823	0.29085416	0.10626832	0.09989991	0.26610956	0.096297493	0.17994312	0.31012546	0.27270868	0.19809645	0.20989093	0.050533562	0.13385579	0.42915262	0.054625385	0.13655447
3951	39.5	0.27276544	0.84231464	0.14397748	0.17266472	0.87538763	0.19799031	0.079661469	0.92822729	0.0045615296	0.19008809	0.89129456	-0.19709367	0.28175137	0.84044348	-0.13546135	0.41693423	1.2458981	0.00030367035	0.39117987	1.318879	0.16307175	0.39516074	1.3155137	-0.15013222	0.4184021	1.1607828	0.0050350842	0.4172251	1.2279769	-0.062625057	0.41694681	0.45442377	0.079356987	0.39056644	0.43820303	0.18380238	0.36450452	0.65431024	0.12474007	0.29074615	0.10627879	0.099857849	0.26599356	0.096456703	0.17984708	0.30886832	0.27334161	0.19747897	0.20990337	0.050582951	0.13387579	0.42912921	0.054655121	0.1365238
3952	39.51	0.27741486	0.8501394	0.14370924	0.17683304	0.88145557	0.19743143	0.083584801	0.93356226	0.0040935979	0.19447807	0.89742163	-0.19721239	0.28686606	0.84811322	-0.13577722	0.4156756	1.2562249	0.00062562191	0.38832257	1.3284982	0.16359734	0.39269656	1.3253383	-0.15011613	0.41830234	1.1714136	0.0052333188	0.41637329	1.238557	-0.062555538	0.41527191	0.45513852	0.078428703	0.38842395	0.43919412	0.18260558	0.36725211	0.65589178	0.12501693	0.29063544	0.1062887	0.099820435	0.2658844	0.096600105	0.17974892	0.30751471	0.27400018	0.19682596	0.20991414	0.050632183	0.13389636	0.42910272	0.054688694	0.1364955
